# xmcd CD database file
#
# Track frame offsets:
#	150
#	18675
#	38070
#	51121
#
# Disc length: 924 seconds
#
# Revision: 0
# Processed by: cddbd v1.5PL3 Copyright (c) Steve Scherf et al.
# Submitted via: CDex 1.51
#
DISCID=2c039a04
DTITLE=米倉千尋 - 想い出がいっぱい
DYEAR=2003
DGENRE=J-POP
TTITLE0=想い出がいっぱい
TTITLE1=さくら咲く日に
TTITLE2=Scarborough Fair
TTITLE3=想い出がいっぱい(Instrumental)
EXTD=YEAR: 2003
EXTT0=
EXTT1=
EXTT2=
EXTT3=
PLAYORDER=
